<svg width="160" height="160" viewBox="0 0 160 160" fill="none" xmlns="http://www.w3.org/2000/svg">
<path d="M160 80C160 124.183 124.183 160 80 160C35.8172 160 0 124.183 0 80C0 35.8172 35.8172 0 80 0C124.183 0 160 35.8172 160 80Z" fill="#FFDA57"/>
<path d="M57.8127 66.8862C51.3894 68.4132 46.4913 71.1147 42.0917 75.5486C37.6336 80.0707 34.7006 85.6792 33.586 91.875C32.7941 96.2209 33.2341 102.975 34.5246 106.616C34.7592 107.262 34.9352 107.849 34.9352 107.878C34.9352 107.908 33.938 108.025 32.7061 108.113C30.2131 108.348 25.9895 109.64 23.4671 110.991C19.8009 112.958 15.372 117.334 13.2603 121.092C11.9697 123.353 10.6792 127.141 10.2686 129.813C9.82864 132.544 10.0926 138.446 10.7379 140.766C11.9111 144.994 14.3161 149.105 17.5131 152.247C20.1822 154.89 22.9392 156.711 26.2828 158.032C31.4449 160.088 28.6586 159.999 83.7405 159.999C136.329 159.999 135.684 159.999 140.23 158.649C147.533 156.476 154.191 150.632 157.506 143.497C159.559 139.092 160.028 136.802 159.999 131.076C159.999 126.495 159.911 125.849 159.177 123.471C156.714 115.396 151.61 109.317 144.248 105.676C139.585 103.386 137.561 102.945 131.343 102.886L126.122 102.857L125.301 100.479C123.688 95.8098 121.606 92.844 117.558 89.4965C111.868 84.7396 103.128 83.3007 95.6192 85.8554L93.5661 86.5601L92.8621 85.0332C89.6652 77.7803 83.7698 71.8781 76.7012 68.8536C72.3311 66.945 70.278 66.5339 64.8519 66.4458C60.9803 66.3577 59.5725 66.4458 57.8127 66.8862Z" fill="#96C1EC"/>
</svg>
