<svg width="160" height="160" viewBox="0 0 160 160" fill="none" xmlns="http://www.w3.org/2000/svg">
<path d="M156.019 24.4743L140.912 19.6402C127.221 15.2747 112.204 16.7032 99.6905 23.5715C87.5425 30.2226 72.4575 30.2226 60.3094 23.5715C47.7843 16.7147 32.7564 15.2861 19.077 19.6517L3.98053 24.4857C0.963519 25.4571 -0.693551 28.6684 0.277835 31.674C1.22636 34.6567 4.41479 36.2795 7.45466 35.3767L22.5511 30.5426C33.2592 27.1028 45.0187 28.2341 54.8125 33.5939C62.5836 37.868 71.2918 39.9822 80 39.9822C88.7082 39.9822 97.4164 37.8566 105.187 33.5939C114.97 28.2227 126.718 27.1028 137.449 30.5312L152.545 35.3652C155.562 36.2795 158.762 34.6567 159.722 31.6626C160.682 28.657 159.025 25.4457 156.019 24.4743Z" fill="#96C1EC"/>
<path d="M156.019 58.7699L140.912 53.9358C127.221 49.5817 112.204 51.0102 99.6905 57.8671C87.5425 64.5182 72.4575 64.5182 60.3094 57.8671C47.7843 51.0102 32.7564 49.5817 19.077 53.9358L3.98053 58.7699C0.963519 59.7413 -0.69355 62.9525 0.277835 65.9581C1.22636 68.9523 4.41479 70.5865 7.45466 69.6608L22.5511 64.8267C33.2592 61.4098 45.0187 62.5183 54.8125 67.878C62.5836 72.1521 71.2918 74.2663 80 74.2663C88.7082 74.2663 97.4164 72.1407 105.187 67.878C114.97 62.5183 126.718 61.3869 137.449 64.8153L152.545 69.6494C155.562 70.5865 158.762 68.9294 159.722 65.9467C160.694 62.9525 159.036 59.7413 156.019 58.7699Z" fill="#96C1EC"/>
<path d="M156.019 93.054L140.912 88.22C127.221 83.8659 112.204 85.2944 99.6906 92.1512C87.5425 98.8024 72.4575 98.8024 60.3095 92.1512C47.7843 85.2944 32.7564 83.8659 19.077 88.22L3.98056 93.054C0.974975 94.0254 -0.682094 97.2367 0.277864 100.242C1.22639 103.248 4.41482 104.859 7.45469 103.945L22.5512 99.1109C33.2593 95.6825 45.0187 96.8025 54.8126 102.174C62.5837 106.436 71.2804 108.562 80 108.562C88.7196 108.562 97.4164 106.436 105.187 102.174C114.97 96.8025 126.718 95.6825 137.449 99.1109L152.545 103.945C155.562 104.859 158.762 103.236 159.722 100.242C160.694 97.2367 159.037 94.0254 156.019 93.054Z" fill="#96C1EC"/>
<path d="M156.019 127.338L140.912 122.504C127.221 118.139 112.204 119.579 99.6906 126.435C87.5425 133.087 72.4575 133.087 60.3095 126.435C47.7843 119.579 32.7564 118.139 19.077 122.504L3.98056 127.338C0.974975 128.31 -0.682094 131.521 0.277864 134.526C1.22639 137.521 4.41482 139.155 7.45469 138.229L22.5512 133.395C33.2593 129.967 45.0187 131.087 54.8126 136.458C62.5837 140.72 71.2804 142.846 80 142.846C88.7196 142.846 97.4164 140.72 105.187 136.458C114.97 131.087 126.718 129.967 137.449 133.395L152.545 138.229C155.562 139.166 158.762 137.521 159.722 134.526C160.694 131.521 159.037 128.31 156.019 127.338Z" fill="#96C1EC"/>
</svg>
