<svg width="160" height="140" viewBox="0 0 160 140" fill="none" xmlns="http://www.w3.org/2000/svg">
<rect x="32" y="108" width="5" height="12" rx="2.5" fill="#5792CE"/>
<rect x="62" y="108" width="5" height="12" rx="2.5" fill="#5792CE"/>
<rect x="92" y="108" width="5" height="12" rx="2.5" fill="#5792CE"/>
<rect x="122" y="108" width="5" height="12" rx="2.5" fill="#5792CE"/>
<rect x="47" y="128" width="5" height="12" rx="2.5" fill="#5792CE"/>
<rect x="77" y="128" width="5" height="12" rx="2.5" fill="#5792CE"/>
<rect x="107" y="128" width="5" height="12" rx="2.5" fill="#5792CE"/>
<path d="M50.9629 0.502167C44.1091 2.12957 38.8826 5.00881 34.1882 9.73453C29.4312 14.5541 26.3016 20.5317 25.1123 27.1352C24.2673 31.767 24.7368 38.9651 26.1138 42.8458C26.3642 43.5344 26.5519 44.1603 26.5519 44.1916C26.5519 44.2229 25.4879 44.3481 24.1734 44.4419C21.5133 44.6923 17.0066 46.0693 14.3151 47.509C10.4031 49.6058 5.67741 54.2689 3.42409 58.2748C2.04706 60.6846 0.670026 64.7218 0.23188 67.5698C-0.237562 70.4803 0.0441035 76.7709 0.732618 79.2432C1.98446 83.7499 4.55075 88.1313 7.96203 91.48C10.81 94.2967 13.7518 96.237 17.3196 97.6454C22.8277 99.8361 19.8546 99.7422 78.6287 99.7422C134.743 99.7422 134.054 99.7422 138.905 98.3026C146.698 95.9867 153.802 89.7587 157.338 82.1538C159.529 77.4594 160.03 75.0183 159.999 68.9155C159.999 64.0333 159.905 63.3448 159.122 60.8098C156.493 52.2034 151.048 45.7251 143.193 41.8444C138.217 39.4033 136.057 38.9338 129.422 38.8712L123.852 38.8399L122.975 36.305C121.254 31.3289 119.032 28.168 114.713 24.6002C108.642 19.5302 99.3154 17.9967 91.3036 20.7195L89.1129 21.4706L88.3618 19.8432C84.9505 12.113 78.66 5.82251 71.1176 2.59901C66.4545 0.564758 64.2638 0.126617 58.474 0.0327225C54.3429 -0.0611649 52.8407 0.0327301 50.9629 0.502167Z" fill="#96C1EC"/>
</svg>
