<svg width="196" height="123" viewBox="0 0 196 123" fill="none" xmlns="http://www.w3.org/2000/svg">
<path d="M62.4296 0.61518C54.0336 2.60874 47.6312 6.13581 41.8805 11.9248C36.0532 17.8288 32.2194 25.1513 30.7626 33.2406C29.7275 38.9146 30.3025 47.7323 31.9894 52.4862C32.2961 53.3296 32.5261 54.0964 32.5261 54.1347C32.5261 54.173 31.2226 54.3264 29.6124 54.4414C26.3537 54.7481 20.8331 56.435 17.536 58.1985C12.7438 60.7671 6.95482 66.4795 4.19451 71.3867C2.50764 74.3387 0.820782 79.2843 0.284053 82.773C-0.291013 86.3384 0.0540268 94.0443 0.897458 97.073C2.43097 102.594 5.57466 107.961 9.75348 112.063C13.2422 115.513 16.846 117.89 21.2165 119.616C27.9639 122.299 24.3218 122.184 96.3202 122.184C165.06 122.184 164.216 122.184 170.159 120.421C179.705 117.584 188.407 109.954 192.74 100.638C195.423 94.8877 196.037 91.8974 195.998 84.4215C195.998 78.4408 195.883 77.5974 194.925 74.492C191.705 63.9492 185.034 56.0132 175.411 51.2594C169.315 48.269 166.67 47.694 158.542 47.6173L151.718 47.5789L150.645 44.4736C148.536 38.3779 145.814 34.5058 140.524 30.1353C133.086 23.9245 121.661 22.046 111.847 25.3814L109.163 26.3015L108.243 24.3079C104.064 14.8385 96.3585 7.1326 87.1191 3.18381C81.4068 0.691854 78.7231 0.155124 71.6306 0.0401105C66.57 -0.0749028 64.7298 0.0401133 62.4296 0.61518Z" fill="#96C1EC"/>
</svg>
