<svg width="160" height="144" viewBox="0 0 160 144" fill="none" xmlns="http://www.w3.org/2000/svg">
<rect width="5.00352" height="17.0477" rx="2.50176" transform="matrix(0.893645 0.448775 -0.446266 0.8949 45.6078 126.442)" fill="#5792CE"/>
<rect width="5.00352" height="17.0477" rx="2.50176" transform="matrix(0.893645 0.448775 -0.446266 0.8949 76 123.432)" fill="#5792CE"/>
<rect width="5.00352" height="17.0477" rx="2.50176" transform="matrix(0.893645 0.448775 -0.446266 0.8949 106 124.435)" fill="#5792CE"/>
<rect width="5.00352" height="17.0477" rx="2.50176" transform="matrix(0.893645 0.448775 -0.446266 0.8949 36.6078 107.376)" fill="#5792CE"/>
<rect width="5.00352" height="17.0477" rx="2.50176" transform="matrix(0.893645 0.448775 -0.446266 0.8949 67 107.376)" fill="#5792CE"/>
<rect width="5.00352" height="17.0477" rx="2.50176" transform="matrix(0.893645 0.448775 -0.446266 0.8949 97 106.372)" fill="#5792CE"/>
<rect width="5.00352" height="17.0477" rx="2.50176" transform="matrix(0.893645 0.448775 -0.446266 0.8949 127 105.369)" fill="#5792CE"/>
<path d="M50.9629 0.503922C44.1091 2.13704 38.8826 5.02638 34.1882 9.76869C29.4312 14.6052 26.3016 20.6038 25.1123 27.2304C24.2673 31.8785 24.7368 39.1019 26.1138 42.9963C26.3642 43.6872 26.5519 44.3153 26.5519 44.3467C26.5519 44.3781 25.4879 44.5037 24.1734 44.598C21.5133 44.8492 17.0066 46.2311 14.3151 47.6757C10.4031 49.7799 5.67741 54.4594 3.42409 58.4794C2.04706 60.8977 0.670026 64.949 0.23188 67.807C-0.237562 70.7278 0.0441035 77.0404 0.732618 79.5214C1.98446 84.0439 4.55075 88.4407 7.96203 91.8012C10.81 94.6277 13.7518 96.5749 17.3196 97.9882C22.8277 100.187 19.8546 100.092 78.6287 100.092C134.743 100.092 134.054 100.092 138.905 98.6477C146.698 96.3236 153.802 90.0739 157.338 82.4422C159.529 77.7313 160.03 75.2816 159.999 69.1575C159.999 64.2581 159.905 63.5672 159.122 61.0233C156.493 52.3866 151.048 45.8856 143.193 41.9913C138.217 39.5416 136.057 39.0705 129.422 39.0077L123.852 38.9763L122.975 36.4324C121.254 31.4388 119.032 28.2668 114.713 24.6865C108.642 19.5988 99.3154 18.0599 91.3036 20.7922L89.1129 21.5459L88.3618 19.9128C84.9505 12.1555 78.66 5.84294 71.1176 2.60812C66.4545 0.566734 64.2638 0.127052 58.474 0.0328293C54.3429 -0.0613861 52.8407 0.0328369 50.9629 0.503922Z" fill="#96C1EC"/>
</svg>
