<svg width="224" height="170" viewBox="0 0 224 170" fill="none" xmlns="http://www.w3.org/2000/svg">
<path d="M90.4296 0.614218C82.0336 2.60476 75.6312 6.12649 69.8805 11.9067C64.0532 17.8018 60.2194 25.1132 58.7626 33.1903C57.7275 38.8557 58.3025 47.66 59.9894 52.4067C60.2961 53.2489 60.5261 54.0145 60.5261 54.0527C60.5261 54.091 59.2226 54.2441 57.6124 54.359C54.3537 54.6652 48.8331 56.3495 45.536 58.1104C40.7438 60.6751 34.9548 66.3788 32.1945 71.2786C30.5076 74.2262 28.8208 79.1643 28.2841 82.6477C27.709 86.2077 28.054 93.902 28.8975 96.9261C30.431 102.438 33.5747 107.797 37.7535 111.893C41.2422 115.339 44.846 117.712 49.2165 119.435C55.9639 122.114 52.3218 121.999 124.32 121.999C193.06 121.999 192.216 121.999 198.159 120.238C207.705 117.406 216.407 109.788 220.74 100.486C223.423 94.7441 224.037 91.7583 223.998 84.2937C223.998 78.3221 223.883 77.4799 222.925 74.3793C219.705 63.8524 213.034 55.9284 203.411 51.1818C197.315 48.1959 194.67 47.6217 186.542 47.5452L179.718 47.5069L178.645 44.4062C176.536 38.3198 173.814 34.4535 168.524 30.0896C161.086 23.8883 149.661 22.0126 139.847 25.3429L137.163 26.2616L136.243 24.2711C132.064 14.816 124.358 7.12177 115.119 3.17896C109.407 0.690776 106.723 0.154858 99.6306 0.0400188C94.57 -0.0748204 92.7298 0.0400217 90.4296 0.614218Z" fill="#96C1EC"/>
<path d="M62.4296 24.6142C54.0336 26.6048 47.6312 30.1265 41.8805 35.9067C36.0532 41.8018 32.2194 49.1132 30.7626 57.1903C29.7275 62.8557 30.3025 71.66 31.9894 76.4067C32.2961 77.2489 32.5261 78.0145 32.5261 78.0527C32.5261 78.091 31.2226 78.2441 29.6124 78.359C26.3537 78.6652 20.8331 80.3495 17.536 82.1104C12.7438 84.6751 6.95482 90.3788 4.19451 95.2786C2.50764 98.2262 0.820782 103.164 0.284053 106.648C-0.291013 110.208 0.0540268 117.902 0.897458 120.926C2.43097 126.438 5.57466 131.797 9.75348 135.893C13.2422 139.339 16.846 141.712 21.2165 143.435C27.9639 146.114 24.3218 145.999 96.3202 145.999C165.06 145.999 164.216 145.999 170.159 144.238C179.705 141.406 188.407 133.788 192.74 124.486C195.423 118.744 196.037 115.758 195.998 108.294C195.998 102.322 195.883 101.48 194.925 98.3793C191.705 87.8524 185.034 79.9284 175.411 75.1818C169.315 72.1959 166.67 71.6217 158.542 71.5452L151.718 71.5069L150.645 68.4062C148.536 62.3198 145.814 58.4535 140.524 54.0896C133.086 47.8883 121.661 46.0126 111.847 49.3429L109.163 50.2616L108.243 48.2711C104.064 38.816 96.3585 31.1218 87.1191 27.179C81.4068 24.6908 78.7231 24.1549 71.6306 24.04C66.57 23.9252 64.7298 24.04 62.4296 24.6142Z" fill="#4C8CCC"/>
<g clip-path="url(#clip0_120_262)">
<path d="M176.698 120.312C176.607 120.104 176.457 119.926 176.266 119.801C176.076 119.676 175.853 119.609 175.625 119.609H147.266L159.089 96.7098C159.181 96.5311 159.226 96.3316 159.219 96.1306C159.212 95.9296 159.153 95.7339 159.048 95.5621C158.944 95.3904 158.797 95.2484 158.621 95.15C158.446 95.0515 158.248 94.9999 158.047 95H140.053C139.841 94.9999 139.632 95.0574 139.45 95.1664C139.268 95.2754 139.119 95.4317 139.019 95.6188L118.341 134.291C118.246 134.469 118.198 134.67 118.203 134.872C118.208 135.075 118.265 135.272 118.369 135.446C118.473 135.62 118.621 135.764 118.797 135.863C118.973 135.963 119.172 136.016 119.375 136.016H143.398L130.011 168.379C129.906 168.633 129.893 168.916 129.975 169.179C130.057 169.441 130.229 169.666 130.461 169.815C130.692 169.963 130.968 170.025 131.241 169.991C131.514 169.956 131.766 169.827 131.953 169.625L176.484 121.578C176.639 121.411 176.742 121.202 176.78 120.977C176.818 120.752 176.79 120.521 176.698 120.312Z" fill="#FFD747"/>
</g>
<defs>
<clipPath id="clip0_120_262">
<rect width="75" height="75" fill="white" transform="translate(110 95)"/>
</clipPath>
</defs>
</svg>
