<svg width="26" height="27" viewBox="0 0 26 27" fill="none" xmlns="http://www.w3.org/2000/svg">
<path d="M19.9286 0.103312C18.9688 0.306102 17.9007 0.968548 17.2924 1.73915C16.6164 2.58411 16.2919 3.54398 16.2919 4.65932C16.2919 5.5178 16.4136 6.03153 16.7989 6.82241C17.022 7.28207 17.191 7.5119 17.6574 7.97155C18.6037 8.91115 19.5974 9.32349 20.9426 9.32349C21.774 9.32349 22.3283 9.19505 23.0651 8.84355C23.518 8.62048 23.7546 8.45149 24.221 7.97831C24.728 7.4781 24.8564 7.30235 25.12 6.75482C25.4648 6.01801 25.5527 5.71383 25.6067 4.96351C25.6879 3.96308 25.404 2.93561 24.8226 2.05685C23.7681 0.481853 21.8281 -0.295508 19.9286 0.103312ZM21.7537 2.86125C22.5243 3.21951 22.9772 3.9766 22.9164 4.79451C22.8285 6.06533 21.6118 6.94409 20.4221 6.59258C19.3405 6.28164 18.7051 5.0987 19.0499 4.05771C19.1986 3.61157 19.692 3.06404 20.1314 2.86125C20.6046 2.63818 21.2873 2.63818 21.7537 2.86125Z" fill="white"/>
<path d="M8.91715 0.873919C8.62649 0.968554 8.51833 1.09023 7.65985 2.32725C4.14483 7.41051 1.46801 12.1963 0.474337 15.2044C0.0890361 16.3603 -0.0123588 16.9484 0.00116054 17.9759C0.0349588 22.302 3.16468 26.0131 7.50438 26.8783C8.3223 27.0406 10.1677 27.0406 10.9856 26.8783C14.8386 26.1077 17.7791 23.0726 18.3807 19.2399C18.5361 18.2598 18.4821 16.8876 18.2455 15.9953C17.7115 13.9877 16.3393 11.1216 14.2438 7.63358C12.689 5.03787 10.1474 1.23894 9.81619 1.00235C9.59988 0.85364 9.18078 0.792803 8.91715 0.873919Z" fill="white"/>
</svg>
